# xmcd
#
# Track frame offsets:
#	150
#	16190
#	30722
#	45342
#	61425
#	68327
#	73277
#	78230
#	83185
#	88225
#	92570
#	107237
#	120335
#	135367
#	150085
#	156427
#	161180
#	167200
#	171030
#
# Disc length: 2356 seconds
#
# Revision: 0
# Processed by: cddbd v1.5.2PL0 Copyright (c) Steve Scherf et al.
# Submitted via: EasyCDDAExtractor 16.0.6.1
#
DISCID=e6093213
DTITLE=Συλλογικός δίσκος - Μητσάκης-ΕΜΙ
DYEAR=1972
DGENRE=Λαϊκή
TTITLE0=Μπιθικώτσης Γρηγόρης - Οι αρχαίοι [Γ. Μητσάκης]
TTITLE1=Πάνου Πόλυ-Ρουμελιώτης Δημήτρης - Το καυγαδάκι [Γ. Μητσάκης]
TTITLE2=Μπιθικώτσης Γρηγόρης-Γιουλάκης Νίκος - Στον Πειραιά συννέφιασε [Γ. Μητ
TTITLE2=σάκης]
TTITLE3=Λύδια Γιώτα - Χτυπώ νεκροί κι ανοίξτε μου [. ΓΜητσάκης]
TTITLE4=Πάνου Πόλυ-Κλειδωνιάρης Αντώνης - Το κομπολογάκι [Γ. Μητσάκης]
TTITLE5=Μπιθικώτσης Γρηγόρης-Λύδια Γ.-Μητσάκης Γ.-Γιουλάκης Π. - Ψιλή βροχούλα
TTITLE5=έπιασε [Γ. Μητσάκης]
TTITLE6=Λύδια Γιώτα-Κλειδωνιάρης Α.-Μητσάκης Γ. - Ο ναύτης [Γ. Μητσάκης]
TTITLE7=Γιουλάκης Νίκος-Μητσάκης Γ.-Πάνου Π.-Λύδια Γ. - Δεν είμαι εγώ ο Γιώργο
TTITLE7=ς σου [Γ. Μητσάκης]
TTITLE8=Πάνου Πόλυ-Μητσάκης Γιώργος - Το καπηλειό [Γ. Μητσάκης]
TTITLE9=Λύδια Γιώτα-Πάνου Πόλυ-Μητσάκης Γ.-Κλειδωνιάρης Α. - Στα μπουζούκια να
TTITLE9=με πας [Γ. Μητσάκης]
TTITLE10=Μπιθικώτσης Γρηγόρης-Γκίκα Βούλα - Ο μπαρμπα Θωμάς [Γ. Μητσάκης]
TTITLE11=Πάνου Πόλυ-Βαμβακάς Χρήστος - Το δαχτυλίδι [Γ. Μητσάκης]
TTITLE12=Γιουλάκης Νίκος - Δραπέτης του Γεντί Κουλέ [Γ. Μητσάκης]
TTITLE13=Μπιθικώτσης Γρηγόρης - Ο ξενητεμένος [Γ. Μητσάκης]
TTITLE14=Λύδια Γιώτα-Κλειδωνιάρης Αντώνης - Η Φρόσω [Γ. Μητσάκης]
TTITLE15=Πάνου Πόλυ-Κλειδωνιάρης Αντώνης - Το φουρώ [Γ. Μητσάκης]
TTITLE16=Γιουλάκης Νίκος-Πάνου Π.-Μητσάκης Γ. - Νίτσα Ελενίτσα [Γ. Μητσάκης]
TTITLE17=Λύδια Γιώτα-Μητσάκης Γιώργος - Τα παλαμάκια [Γ. Μητσάκης]
TTITLE18=Πάνου Πόλυ - Η κατσιβέλα [Γ. Μητσάκης]
EXTD=
EXTT0=
EXTT1=
EXTT2=
EXTT3=
EXTT4=
EXTT5=
EXTT6=
EXTT7=
EXTT8=
EXTT9=
EXTT10=
EXTT11=
EXTT12=
EXTT13=
EXTT14=
EXTT15=
EXTT16=
EXTT17=
EXTT18=
PLAYORDER=
